<svg height="64" viewBox="0 0 64 64" width="64" xmlns="http://www.w3.org/2000/svg" xmlns:xlink="http://www.w3.org/1999/xlink"><linearGradient id="a" gradientTransform="matrix(1.0749904 0 0 1.1719405 113.08072 -.422271)" gradientUnits="userSpaceOnUse" x1="-74.929466" x2="-75.259552" y1="52.199436" y2="2.356489"><stop offset="0" stop-color="#8cbdf8"/><stop offset="1" stop-color="#d5e8ff"/></linearGradient><rect fill="url(#a)" height="60.153744" ry="2.846479" stroke-width="1.067048" width="44" x="10" y="1.468998"/><path d="m10 51.087891v5.71289 2.199219.5c0 1.385 1.115 2.5 2.5 2.5h39c1.385 0 2.5-1.115 2.5-2.5v-.5-2.199219-5.71289z" fill="#003b57"/><g fill="#003b57" transform="translate(-2.343286)"><path d="m44.003817 12.717797c-1.313292-1.171051-2.903442-.700727-4.472608.692137-.232983.206825-.46542.436402-.696633.681645-2.68463 2.847989-5.1766 8.123095-5.950761 12.15194.301653.61162.537227 1.392041.692277 1.988265.03978.15287.07561.296475.104376.418551.06812.289116.104769.476455.104769.476455s-.02411-.09101-.122894-.377402c-.01881-.05491-.03979-.114853-.06459-.185434a2.1499896 2.1499896 0 0 0 -.04143-.102474c-.175087-.407105-.659448-1.266286-.872676-1.640419a40.972837 40.972837 0 0 0 -.478366 1.496412c.615433 1.126083.990521 3.055898.990521 3.055898s-.03259-.125065-.187203-.561614c-.137339-.385991-.821164-1.584284-.983165-1.864411-.277124 1.023082-.387216 1.713721-.28789 1.881849.19279.325768.376316.888066.537635 1.509762.364184 1.400628.617197 3.105902.617197 3.105902s.0082.113095.02206.286942c-.0507 1.176229-.02029 2.39578.07086 3.498026.120579 1.459214.347705 2.71269.637232 3.383574l.196609-.1071c-.425086-1.321737-.597846-3.053852-.522231-5.05152.114441-3.053309.817077-6.73568 2.115382-10.573638 2.193592-5.793664 5.236821-10.442162 8.022134-12.662185-2.538704 2.292777-5.9746 9.714055-7.003134 12.46217-1.151704 3.077568-1.967827 5.96547-2.459682 8.732391.848686-2.594018 3.592578-3.708933 3.592578-3.708933s1.345724-1.659773 2.91843-4.03103c-.942017.214863-2.488976.582734-3.007128.800457-.764346.320594-.970216.43-.970216.43s2.475617-1.507716 4.599723-2.190322c2.921153-4.600812 6.103764-11.136889 2.898811-13.995912" stroke-width=".136247"/><path d="m31.075103 22.39021c-3.657626 0-7.545933.970532-7.545933 2.770972 0 .147748.03354.28717.08331.423017l-.01923.03418c-.167349.303471-.249965.610689-.249965.912263v2.228315c0 .3431.107735.671446.299104.982766l-.02564.04273c-.182458.316512-.273465.638105-.273465.954992v2.226179c0 .332084.10104.650143.282012.952855l-.0085.01923c-.182459.315876-.273465.636722-.273465.952854v2.228316c0 1.979964 3.395913 3.52941 7.731804 3.52941.125046-.247997.272425-.779775-.000125-.833218-4.069138 0-6.904998-1.42365-6.904998-2.702606v-2.095855c1.269883 1.162861 3.882476 1.905712 6.904998 1.905712.07683 0 .150192-.0055.226463-.0064-.0289-.408671-.05258-.826142-.05982-1.256231-.05728.000568-.10885.0064-.166642.0064-4.069139 0-6.904999-1.424917-6.904999-2.702607v-2.093719c1.258895 1.152422 3.838821 1.888723 6.828086 1.901438-.07921-.406406-.157844-.827666-.267055-1.247686-.0075-.02916-.01581-.05237-.0235-.08119-3.864877-.08506-6.53753-1.447075-6.53753-2.685516v-1.854436c1.198261 1.015608 3.924156 1.546892 6.618715 1.583107-.03994-.08651-.07253-.186532-.115369-.264919 1.837351-5.779135 0 0 1.837351-5.779135-.47659-.03278-.957746-.05127-1.435692-.05127z" stroke-width="1.266041"/></g><g fill="#fff"><path d="m25.25 57.610352q0-.234375-.175781-.417969-.171875-.1875-.796875-.3125-.707032-.148438-1.117188-.421875-.40625-.273438-.40625-.796875 0-.5.425781-.867188.429688-.367187 1.140625-.367187.757813 0 1.183594.386719.425781.386718.425781.933593h-.722656q0-.261718-.230469-.492187-.230468-.234375-.65625-.234375-.449218 0-.644531.195312-.195312.195313-.195312.425782 0 .234375.1875.378906.1875.140625.785156.273437.777344.179688 1.148437.464844.371094.285156.371094.796875 0 .558594-.449219.90625-.445312.347656-1.183593.347656-.839844 0-1.285157-.429687-.445312-.429688-.445312-.953125h.726562q.02344.449219.34375.621094.324219.167968.660157.167968.441406 0 .675781-.171875.234375-.171875.234375-.433593z"/><path d="m30.300781 54.504883v5.851562h-.726562v-2.015625q-.433594.46875-1.164063.46875-.78125 0-1.230469-.609375-.445312-.609375-.445312-1.535156v-.08203q0-.96875.445312-1.5625.445313-.59375 1.238282-.59375.75 0 1.1875.503906l.03125-.425781zm-2.839844 2.160156q0 .628906.269532 1.089844.273437.460937.859375.460937.359375 0 .597656-.160156.238281-.160156.386719-.40625v-2.074219q-.148438-.242187-.386719-.398437-.238281-.15625-.589844-.15625-.59375 0-.867187.46875-.269532.464844-.269532 1.09375z"/><path d="m32.246094 52.731445v6h-.726563v-6z"/><path d="m33.417969 53.383789q0-.175781.105468-.296875.109375-.121094.320313-.121094.207031 0 .316406.121094.113281.121094.113281.296875 0 .167969-.113281.289063-.109375.117187-.316406.117187-.210938 0-.320313-.117187-.105468-.121094-.105468-.289063zm.78125 1.121094v4.226562h-.726563v-4.226562z"/><path d="m37.15625 58.731445q-.08594.02734-.226563.05078-.136718.02734-.332031.02734-.402344 0-.6875-.246093-.285156-.246089-.285156-.882808v-2.621094h-.773438v-.554687h.773438v-1.027344h.722656v1.027344h.789063v.554687h-.789063v2.625q0 .324219.140625.414063.140625.08984.324219.08984.08984 0 .1875-.01563.101562-.01953.152344-.03125z"/><path d="m41.335937 57.993164q-.207031.3125-.585937.566406-.378906.25-1.003906.25-.882813 0-1.414063-.574218-.527344-.574219-.527344-1.46875v-.164063q0-.691406.261719-1.175781.265625-.488281.6875-.742188.421875-.257812.898438-.257812.90625 0 1.320312.59375.417969.589844.417969 1.476562v.324219h-2.859375q.01563.582031.34375.992188.332031.40625.910156.40625.382813 0 .648438-.15625.265625-.15625.464843-.417969zm-1.683593-2.972656q-.429688 0-.726563.3125-.296875.3125-.371094.898437h2.113282v-.05469q-.02734-.421875-.246094-.789063-.214844-.367187-.769531-.367187z"/></g></svg>